<svg id="Ñëîé_1" data-name="Ñëîé 1" xmlns="http://www.w3.org/2000/svg" viewBox="0 0 577.62 577.62"><defs><style>.cls-1{fill:#ff7954;}.cls-2{fill:#e5311f;}.cls-3{fill:#de401d;}.cls-4{fill:#ffa276;}.cls-5{fill:#ffd073;}.cls-6{fill:#ffccad;}</style></defs><title>Spinner</title><circle class="cls-1" cx="288.81" cy="288.81" r="283.12"/><path class="cls-2" d="M288.81,577.62C129.56,577.62,0,448.06,0,288.81S129.56,0,288.81,0,577.62,129.56,577.62,288.81,448.06,577.62,288.81,577.62Zm0-566.24c-153,0-277.43,124.45-277.43,277.43S135.83,566.24,288.81,566.24,566.24,441.79,566.24,288.81,441.79,11.38,288.81,11.38Z"/><path class="cls-3" d="M392.29,122.67c8.08-23.77,2.88-32.54,0-35.15-3.62-3.29-8.51-4.72-13.24-6A422.25,422.25,0,0,0,199.43,74c-7.34,1.29-15.62,3.47-19,10.1-2.53,4.93-1.83,10.24-1.09,13.53,8.23,36.73,52.79,98,52.79,98,35.34,48.56,33.92,53.49,32.58,55-1,1.15-4.79,3.68-50-19.55-28.58-14.7-57.9-27.94-86.37-42.85-11.4-6-23.87-12.75-35.92-8.08-8.34,3.23-13.68,11.29-18,19.11A244.66,244.66,0,0,0,43.83,314c-.21,15.73,2.14,33.51,14.72,43,2.61,2,12.7,8.38,45.78,1.1,15.71-3.45,33.14-9.24,61.89-24.21,40.55-21.1,65.16-40.43,71.68-34a6,6,0,0,1,1.45,4.35C239.84,335.89,91,404.82,100,442.07c.61,2.52,2.77,6.35,9.31,11.29a336.35,336.35,0,0,0,110.75,55c8.9,2.51,18.27,4.67,27.32,2.74,17.52-3.74,28.47-21.62,32.69-39,4.53-18.73,8.36-32.92,9.31-52.87,3.56-74.41-1.15-111.9,14.38-117.9a8.09,8.09,0,0,1,5.07-.72c19.33,4.66-.3,98.47,34.54,165.35,13.07,25.08,25.42,30.94,33.37,31.44,6.67.42,13.24-1.68,19.46-4.13A172.88,172.88,0,0,0,479.3,424c5.19-8.39,9.77-18.61,6.25-27.83-3.26-8.53-10.95-13.16-13.7-14.72C453.69,371.07,402.32,337.7,332,291.87c-3.47-9.08-2.33-12.78-.72-14.48C344.84,263,456,320.61,498.76,333.76c3.84,1.18,12.41,3.41,20.83-.09,7.1-3,11.56-10.06,14.52-17.15,12.3-29.53,6-63.17-1.35-94.3-8.26-35.11-24.22-69.17-48.56-73.57-39.31-7.11-92.29,69.23-169.55,117.15,0,0-10.93,6.79-13,4.35C295.79,263.36,372.8,179.94,392.29,122.67Z"/><path class="cls-4" d="M317.34,145.3c3-4.82,6.48-10.83,3.54-15.65-2.2-3.63-7-4.52-11.21-5a330.19,330.19,0,0,0-53.45-1.4c-4.19.23-9,.92-11.18,4.52-1.57,2.63-1.12,6-.53,9,6.42,32.53,24.29,66.6,10.65,96.82-8.56,19-28.56,31.19-49.17,34.08s-41.66-2.5-60.57-11.2c-9.13-4.2-21.64-8.48-27.75-.5-2.2,2.89-2.76,6.66-3.25,10.26q-2.76,20.41-5.53,40.82a798.77,798.77,0,0,1,80.83-7.3c9.4-.37,19.9-.17,26.68,6.35,7.08,6.82,7.38,18,6.14,27.72a137.69,137.69,0,0,1-53.44,91.68,118.63,118.63,0,0,0,48.79,23.79c4.61,1,9.67,1.75,13.86-.43,7.25-3.77,8-13.59,8.68-21.74,3.29-41.07,28.85-79.66,65.37-98.72,4.36-2.27,9.3-4.33,14.07-3.15,6.75,1.68,10.26,8.93,12.89,15.37L372.49,438a154.65,154.65,0,0,0,36.43-24.54c3.11-2.81,6.24-6,7.18-10.09,1.42-6.25-2.66-12.29-6.52-17.41l-37.9-50.21c-8.29-11-17-23.29-16-37,1.41-19.13,21.81-31.95,40.95-33.18s37.73,5.69,56.48,9.77c3.58.78,8,1.2,10.27-1.64,1.3-1.59,1.52-3.78,1.65-5.83a164.13,164.13,0,0,0-11-70.29l-84.83,40.07c-26.59,12.56-47.14,15-58.52-15.26C301.3,197.49,303.32,168.07,317.34,145.3Z"/><path class="cls-5" d="M113.78,193.69a8.71,8.71,0,0,0-8.31-2.11c-8.27,2.62-7.43,11.29-2,16.39,2.07,1.95,4.09,4,6.22,5.92,2.54,2.26,4.66,3.21,5.58,6.75a.92.92,0,0,0,1.77,0c1.07-4.39,3.56-8.17,3.31-12.84A21.81,21.81,0,0,0,113.78,193.69Z"/><path class="cls-5" d="M86.09,223.59c-11.79-1.47-15.68,13.56-4.52,17.84,3.48,1.33,7.21,2,10.74,3.27,3.24,1.13,6.44,2.06,9.9,1.41a3.79,3.79,0,0,0,2.74-2.8C106.81,233.59,94.64,224.65,86.09,223.59Z"/><path class="cls-5" d="M90.37,271.3c-3.47-1.86-7.46-2.12-11.26-2.92s-7.23-2-10.87-2.9c-10.18-2.4-14.09,13-4,15.74A98.41,98.41,0,0,0,76,283.16c4.23.58,8.72,1.55,12.91.38C94.45,282,95.53,274.06,90.37,271.3Z"/><path class="cls-5" d="M90.82,319.62c-7.46-1.35-15.5,3.31-22.78,4.71-11.91,2.28-6.91,21.19,5,18.3,8.26-2,20-6.08,22.34-15.3C96.23,324.18,94.19,320.23,90.82,319.62Z"/><path class="cls-5" d="M138.82,415.18c-8.6,2.13-15.59,8.42-21.13,15.08-3.13,3.77-3.45,9.28.27,12.85,3.23,3.1,9.87,3.66,12.86-.27,4.46-5.88,10.2-10.23,15.2-15.59S145.79,413.44,138.82,415.18Z"/><path class="cls-5" d="M171.56,443.28c-8.72-.11-15.67,8.28-19.8,15.13-3,5-.21,11.59,5,13.63,5.75,2.26,11-1.12,12.93-6.57,2.15-5.93,5.93-11.29,6.52-17.66C176.4,445.31,173.83,443.31,171.56,443.28Z"/><path class="cls-5" d="M208.28,461.61c-5.52-1-10.31,2-13.53,6.35a25.5,25.5,0,0,0-5,13.81c-.39,5,4.79,9.71,9.63,9.46,5.68-.29,8.87-4.31,9.46-9.62-.21,1.89.09,0,.17-.36.15-.66.27-1.32.43-2s.36-1.25.53-1.88l.73-1.89c.27-.67.45-.85.06-.11.31-.58.62-1.17.91-1.75a12.4,12.4,0,0,0,1.4-5.88A6.47,6.47,0,0,0,208.28,461.61Z"/><path class="cls-5" d="M232.85,465.94c-7.69,9.25-11.6,26.62-3.29,34.07,4.54,4.07,12.38.7,14.85-5,2.33-5.33.46-11.29-.43-16.34a46.26,46.26,0,0,0-4.31-13.41C238.38,462.74,234.63,463.8,232.85,465.94Z"/><path class="cls-5" d="M371.09,454.58c-3.46-3.32-10.74-2-11.49,3.3s.54,10.12,1.91,15.28c1.46,5.49,2.86,10.66,6.52,15.07,5.06,6.12,14.38.4,14.6-6.3.16-5-2.27-9.82-4.2-14.36S374.82,458.17,371.09,454.58Z"/><path class="cls-5" d="M415.7,455.88c-4.61-5.59-10.37-12.49-17.09-15.51a6.5,6.5,0,0,0-9.27,7.3c1.41,7.26,6.84,14.45,11.26,20.22,2.58,3.38,6.53,5.75,10.94,4.41a9.56,9.56,0,0,0,5.94-4.69C419.84,463.54,418.44,459.21,415.7,455.88Z"/><path class="cls-5" d="M456.17,435.61c-8.14-7.33-19.26-13.25-30.51-12.25-4,.35-6.72,5.35-3.32,8.36,6.78,6,14.58,10.88,21.59,16.66C452.6,455.51,464.72,443.33,456.17,435.61Z"/><path class="cls-5" d="M472.39,395.84a62.36,62.36,0,0,0-12.49-1.52,56.44,56.44,0,0,0-11.55.88c-5,.68-7.83,7.34-2.58,10.18a61.87,61.87,0,0,0,11.48,5.28,65.14,65.14,0,0,0,13,2.92c4.41.43,8.37-3.89,8.8-7.94A9,9,0,0,0,472.39,395.84Z"/><path class="cls-5" d="M509.37,300.91c-11.19-3.16-24.76-5.3-35.48.17-4.11,2.1-3.8,8.59.17,10.61,9.26,4.7,20.6,5.29,30.66,7.63C516.64,322.09,521.14,304.24,509.37,300.91Z"/><path class="cls-5" d="M510.53,255.63c-12.74-3.37-25.56,6.76-32.86,16-3.72,4.72,1.2,12.38,7,8.78,8.81-5.49,19.16-4.74,28.22-8.81C520.11,268.37,517.25,257.41,510.53,255.63Z"/><path class="cls-5" d="M502.09,212.89a33.83,33.83,0,0,0-16.31,3c-4.65,2.18-10,7.78-5.45,12.82,2.63,2.89,7.39,2.87,11,2.69s7.27-.09,10.9-.29a9.34,9.34,0,0,0,9.05-9.21C511.25,216.66,507,213.25,502.09,212.89Z"/><path class="cls-5" d="M480.81,165.63c-4.93,5.36-12.56,12.79-13.83,20.19a4.44,4.44,0,0,0,4.25,5.41c8.47.76,17.45-7.09,22.64-13.08C501.43,169.42,488.75,157,480.81,165.63Z"/><path class="cls-5" d="M366,103.3c-8.06,7-14,16.19-20.69,24.38-4.68,5.74,2.81,13,8.34,8,7.81-7.14,16.68-13.56,23.18-22C382.69,106.06,373.37,96.92,366,103.3Z"/><path class="cls-5" d="M319.75,95.27c-.74,3.65-1.48,7.55-1.88,11.25-.16,1.44-.4,2.89-.53,4.33-.1,1.26.26,3.33,0,4.3-.83,3.53,3.38,5.55,5.9,3.27.7-.63,2.86-1.59,4-2.55a29.22,29.22,0,0,0,3.67-4.18,34.74,34.74,0,0,0,5.6-12.18C339.12,88.67,322,84.4,319.75,95.27Z"/><path class="cls-5" d="M269.32,84.23c.35,9.42,3.82,18.58,8.24,26.77,1.79,3.32,7.1,2.42,7.94-1.16,2.12-9.07,3-18.81.86-28C284.13,72.29,269,74.41,269.32,84.23Z"/><path class="cls-5" d="M232.64,87.39c-6.56-6.59-18.44,2.42-13,10.36,4.28,6.28,10.72,15,17.87,18,5.13,2.2,10.59-1.65,9.35-7.36C245.18,100.75,238,92.79,232.64,87.39Z"/><path class="cls-6" d="M282.46,209.06c-3.28.14-5.84,2.92-7.4,5.82-7.74,14.32-.94,35.14-13,46.07-6.43,5.82-15.9,6.33-24.1,9.17s-16.4,11.16-13,19.15c2.82,6.66,11.66,8.2,16.62,13.48,4.32,4.61,5.13,11.59,4.14,17.84s-3.51,12.14-5,18.28c-.55,2.22-.94,4.63,0,6.71,1.89,4.16,7.77,4.47,12.1,3,12.12-4,19.66-15.69,27.93-25.42s20.77-18.75,32.9-14.74c9.56,3.16,17.85,14,27.28,10.43,5.06-1.91,7.84-7.78,7.47-13.18s-3.28-10.33-6.76-14.47c-1.67-2-3.54-4-4.22-6.47-1.63-6,4.2-11.42,10-13.5s12.41-2.59,17.21-6.46c2.24-1.8,3.86-5.41,1.75-7.35a6,6,0,0,0-3.38-1.18c-17-2.08-48,10.66-60.59-4C295.37,244,294.42,208.56,282.46,209.06Z"/></svg>